<svg width="36" height="36" viewBox="0 0 36 36" fill="none" xmlns="http://www.w3.org/2000/svg">
<path d="M21.375 6.75H7.875C7.254 6.75 6.75 7.254 6.75 7.875C6.75 8.496 7.254 9 7.875 9H21.375C21.996 9 22.5 8.496 22.5 7.875C22.5 7.254 21.996 6.75 21.375 6.75Z" fill="#77B42A"/>
<path d="M16.875 11.25H7.875C7.254 11.25 6.75 11.754 6.75 12.375C6.75 12.996 7.254 13.5 7.875 13.5H16.875C17.496 13.5 18 12.996 18 12.375C18 11.754 17.496 11.25 16.875 11.25Z" fill="#77B42A"/>
<path d="M24.75 0H4.5C2.01825 0 0 2.01825 0 4.5V27C0 27.4365 0.252 27.8347 0.648 28.0193C0.79875 28.089 0.963 28.125 1.125 28.125C1.38375 28.125 1.64025 28.035 1.845 27.864L8.28225 22.5H24.75C27.2318 22.5 29.25 20.4818 29.25 18V4.5C29.25 2.01825 27.2318 0 24.75 0ZM27 18C27 19.2397 25.992 20.25 24.75 20.25H7.875C7.61175 20.25 7.3575 20.3423 7.155 20.511L2.25 24.5992V4.5C2.25 3.26025 3.258 2.25 4.5 2.25H24.75C25.992 2.25 27 3.26025 27 4.5V18Z" fill="#77B42A"/>
<path d="M31.5 9C30.879 9 30.375 9.504 30.375 10.125C30.375 10.746 30.879 11.25 31.5 11.25C32.742 11.25 33.75 12.2603 33.75 13.5V32.5327L29.952 29.4953C29.754 29.3378 29.5042 29.25 29.25 29.25H13.5C12.258 29.25 11.25 28.2397 11.25 27V25.875C11.25 25.254 10.746 24.75 10.125 24.75C9.504 24.75 9 25.254 9 25.875V27C9 29.4818 11.0182 31.5 13.5 31.5H28.854L34.1707 35.7547C34.3755 35.9167 34.6252 36 34.875 36C35.0392 36 35.2057 35.964 35.3633 35.8898C35.7525 35.7008 36 35.307 36 34.875V13.5C36 11.0182 33.9818 9 31.5 9Z" fill="#77B42A"/>
</svg>
